# xmcd
#
# Track frame offsets: 
#        150
#        86124
#        164508
#        177449
#        204066
#        222048
#
# Disc length: 3081 seconds
#
# Revision: 13
# Processed by: cddbd v1.5.2PL0 Copyright (c) Steve Scherf et al.
# Submitted via: ExactAudioCopy v0.95a4
#
DISCID=4b0c0706
DTITLE=Mike Oldfield - Ommadawn [2010 Remix]
DYEAR=1975
DGENRE=Progressive Rock
TTITLE0=Ommadawn {Part One}
TTITLE1=Ommadawn {Part Two} ~ On Horseback
TTITLE2=In Dulce Jubilo [A-side of a single]
TTITLE3=First Excursion
TTITLE4=Argiers
TTITLE5=Portsmouth [A-side of a single]
EXTD=
EXTT0=
EXTT1=
EXTT2=
EXTT3=
EXTT4=
EXTT5=
PLAYORDER=
